HIERARCHY
ROOT joint_Root
{
	OFFSET 0.0 0.0 0.0
	CHANNELS 6 Xposition Yposition Zposition Zrotation Xrotation Yrotation 
	JOINT Hips
	{
		OFFSET -17.1583 93.1646 452.98
		CHANNELS 6 Xposition Yposition Zposition Zrotation Xrotation Yrotation 
		JOINT Spine
		{
			OFFSET 15.7357 0.0 0.0
			CHANNELS 6 Xposition Yposition Zposition Zrotation Xrotation Yrotation 
			JOINT Chest
			{
				OFFSET 8.98455 -0.406207 0.0
				CHANNELS 6 Xposition Yposition Zposition Zrotation Xrotation Yrotation 
				JOINT Neck
				{
					OFFSET 16.3773 0.0 0.0
					CHANNELS 6 Xposition Yposition Zposition Zrotation Xrotation Yrotation 
					JOINT Head
					{
						OFFSET 6.45672 0.0 0.0
						CHANNELS 6 Xposition Yposition Zposition Zrotation Xrotation Yrotation 
						End Site
						{
							OFFSET 0.0 0.0 0.0
						}
					}
				}
				JOINT Shoulder_L
				{
					OFFSET 12.9942 -0.242716 4.98039
					CHANNELS 6 Xposition Yposition Zposition Zrotation Xrotation Yrotation 
					JOINT UpperArm_L
					{
						OFFSET 5.34809 0.0 0.0
						CHANNELS 6 Xposition Yposition Zposition Zrotation Xrotation Yrotation 
						JOINT LowerArm_L
						{
							OFFSET 24.3286 1.87007e-05 0.0
							CHANNELS 6 Xposition Yposition Zposition Zrotation Xrotation Yrotation 
							JOINT Hand_L
							{
								OFFSET 22.2916 0.0 0.0
								CHANNELS 6 Xposition Yposition Zposition Zrotation Xrotation Yrotation 
								End Site
								{
									OFFSET 0.0 0.0 0.0
								}
							}
						}
					}
				}
				JOINT Shoulder_R
				{
					OFFSET 12.9945 -0.242716 -4.98039
					CHANNELS 6 Xposition Yposition Zposition Zrotation Xrotation Yrotation 
					JOINT UpperArm_R
					{
						OFFSET -5.34813 0.0 0.0
						CHANNELS 6 Xposition Yposition Zposition Zrotation Xrotation Yrotation 
						JOINT LowerArm_R
						{
							OFFSET -24.3289 0.000322201 0.0
							CHANNELS 6 Xposition Yposition Zposition Zrotation Xrotation Yrotation 
							JOINT Hand_R
							{
								OFFSET -22.2915 -0.000108084 0.0
								CHANNELS 6 Xposition Yposition Zposition Zrotation Xrotation Yrotation 
								End Site
								{
									OFFSET 0.0 0.0 0.0
								}
							}
						}
					}
				}
			}
		}
		JOINT UpperLeg_L
		{
			OFFSET -2.19248 -6.46944 0.0
			CHANNELS 6 Xposition Yposition Zposition Zrotation Xrotation Yrotation 
			JOINT LowerLeg_L
			{
				OFFSET 39.0811 0.0 -1.23785e-05
				CHANNELS 6 Xposition Yposition Zposition Zrotation Xrotation Yrotation 
				JOINT Foot_L
				{
					OFFSET 40.9854 0.0 -1.26872e-05
					CHANNELS 6 Xposition Yposition Zposition Zrotation Xrotation Yrotation 
					JOINT Toes_L
					{
						OFFSET 11.7543 0.0 0.0
						CHANNELS 6 Xposition Yposition Zposition Zrotation Xrotation Yrotation 
						End Site
						{
							OFFSET 0.0 0.0 0.0
						}
					}
				}
			}
		}
		JOINT UpperLeg_R
		{
			OFFSET -2.19251 6.46944 0.0
			CHANNELS 6 Xposition Yposition Zposition Zrotation Xrotation Yrotation 
			JOINT LowerLeg_R
			{
				OFFSET -39.0811 -0.00228153 -0.0401928
				CHANNELS 6 Xposition Yposition Zposition Zrotation Xrotation Yrotation 
				JOINT Foot_R
				{
					OFFSET -40.9854 0.0 0.0
					CHANNELS 6 Xposition Yposition Zposition Zrotation Xrotation Yrotation 
					JOINT Toes_R
					{
						OFFSET -11.7543 0.0 0.0
						CHANNELS 6 Xposition Yposition Zposition Zrotation Xrotation Yrotation 
						End Site
						{
							OFFSET 0.0 0.0 0.0
						}
					}
				}
			}
		}
	}
}
MOTION
Frames:	6
Frame Time:	0.0333333
0.000000 0.000000 0.000000 0.000000 0.000000 -0.000000 -2.446930 84.629500 28.813300 -94.371800 1.696230 170.409000 15.735700 0.000005 -0.000001 89.942800 84.303200 -90.636100 8.984550 -0.406207 -0.000000 3.628110 0.013659 -1.385500 16.377300 -0.000001 -0.000001 -8.457160 2.666260 -0.100078 6.456720 -0.000001 -0.000000 -2.708620 3.744280 -3.569020 12.994200 -0.242716 4.980390 -93.286300 10.767300 -72.915000 5.348090 -0.000007 -0.000001 -64.061900 -27.036000 8.761970 24.328600 0.000019 0.000005 37.870600 22.623200 -63.680200 22.291600 -0.000001 0.000005 48.185100 3.996660 24.273600 12.994500 -0.242716 -4.980390 88.760200 4.563150 -74.782600 -5.348130 -0.000001 -0.000004 -66.926300 -1.667720 9.471820 -24.328900 0.000322 -0.000009 9.814840 11.357700 -41.298300 -22.291500 -0.000108 -0.000004 54.999500 5.462310 -5.085600 -2.192480 -6.469440 -0.000000 171.039000 2.489000 -36.598300 39.081100 -0.000007 -0.000012 1.035430 -0.743411 54.326100 40.985400 -0.000006 -0.000013 8.533300 5.632410 -82.522900 11.754300 -0.000000 0.000003 -0.000450 0.174892 -9.482880 -2.192510 6.469440 -0.000001 176.305000 7.239440 151.781000 -39.081100 -0.002282 -0.040193 0.147408 0.013142 95.245800 -40.985400 0.000008 0.000006 2.912870 -12.103900 -40.800800 -11.754300 -0.000006 -0.000006 -0.001340 0.187795 -8.955040
0.000000 0.000000 0.000000 0.000000 0.000000 -0.000000 -2.563040 84.451200 19.274500 -94.002700 2.444550 170.776000 15.735700 0.000005 -0.000001 80.771900 84.170000 -81.254900 8.984550 -0.406207 -0.000000 3.737020 -1.850370 -0.904551 16.377300 -0.000001 -0.000001 -8.230430 4.026460 -1.203210 6.456720 -0.000001 -0.000000 -1.980070 5.545790 -2.817710 12.994200 -0.242716 4.980390 -93.194000 10.680200 -73.242800 5.348090 -0.000007 -0.000001 -67.986400 -21.280300 2.097220 24.328600 0.000019 0.000005 46.754400 20.543200 -71.733200 22.291600 -0.000001 0.000005 45.965200 4.064230 23.307300 12.994500 -0.242716 -4.980390 88.776900 4.402260 -74.456200 -5.348130 -0.000001 -0.000004 -64.694900 -5.674220 14.802700 -24.328900 0.000322 -0.000009 8.147020 12.357900 -33.782900 -22.291500 -0.000108 -0.000004 57.206400 5.449880 -4.635650 -2.192480 -6.469440 -0.000000 171.171000 2.013630 -27.988000 39.081100 -0.000007 -0.000012 0.810051 -0.615573 52.770300 40.985400 -0.000006 -0.000013 7.480090 5.579490 -88.276600 11.754300 -0.000000 0.000003 0.000555 0.157685 -10.181600 -2.192510 6.469440 -0.000001 177.327000 5.071210 141.082000 -39.081100 -0.002282 -0.040193 -0.016141 -0.003687 100.476000 -40.985400 0.000008 0.000006 1.997620 -11.639800 -47.941200 -11.754300 -0.000006 -0.000006 -0.001317 0.187487 -8.967580
0.000000 0.000000 0.000000 0.000000 0.000000 -0.000000 -2.042840 86.257600 9.430740 -91.390200 3.161030 169.750000 15.735700 0.000005 -0.000001 69.973600 84.629500 -69.279300 8.984550 -0.406207 -0.000000 2.352950 -3.708260 1.463810 16.377300 -0.000001 -0.000001 -6.529670 5.731520 -2.237580 6.456720 -0.000001 -0.000000 -1.288320 8.109900 -4.183890 12.994200 -0.242716 4.980390 -93.115100 10.304000 -73.077500 5.348090 -0.000007 -0.000001 -69.136800 -17.417300 -1.269780 24.328600 0.000019 0.000005 52.669500 15.259700 -78.650100 22.291600 -0.000001 0.000005 45.493300 4.042260 23.623300 12.994500 -0.242716 -4.980390 89.073800 3.260670 -74.133100 -5.348130 -0.000001 -0.000004 -61.116600 -10.842300 21.166500 -24.328900 0.000322 -0.000009 8.944750 14.308500 -32.494700 -22.291500 -0.000108 -0.000004 58.404800 5.448090 -4.572330 -2.192480 -6.469440 -0.000000 174.981000 -0.140833 -17.391500 39.081100 -0.000007 -0.000012 -0.008981 0.009559 43.222600 40.985400 -0.000006 -0.000013 1.724700 10.452500 -85.664400 11.754300 -0.000000 0.000003 0.002435 0.096019 -12.682900 -2.192510 6.469440 -0.000001 -178.799000 2.250220 133.228000 -39.081100 -0.002282 -0.040193 -0.137469 -0.015557 96.270100 -40.985400 0.000008 0.000006 0.212882 -13.925700 -56.090700 -11.754300 -0.000006 -0.000006 -0.002153 0.198279 -8.528770
0.000000 0.000000 0.000000 0.000000 0.000000 -0.000000 -1.191220 89.242300 -0.673783 -87.289000 3.364380 167.447000 15.735700 0.000005 -0.000001 57.035000 85.211900 -54.550800 8.984550 -0.406207 -0.000000 0.393630 -5.368870 4.986280 16.377300 -0.000001 -0.000001 -5.006140 7.149930 -3.278620 6.456720 -0.000001 -0.000000 -0.570374 10.692900 -5.452010 12.994200 -0.242716 4.980390 -92.814400 9.245440 -72.986900 5.348090 -0.000007 -0.000001 -70.335400 -15.365600 -2.905090 24.328600 0.000019 0.000005 53.035200 9.043160 -83.253800 22.291600 -0.000001 0.000005 45.304500 4.106070 22.700200 12.994500 -0.242716 -4.980390 89.535200 1.606580 -73.860600 -5.348130 -0.000001 -0.000004 -57.362300 -13.749000 26.312200 -24.328900 0.000322 -0.000009 8.777840 14.011900 -32.530600 -22.291500 -0.000108 -0.000004 59.313500 5.418610 -3.553080 -2.192480 -6.469440 -0.000000 179.699000 -2.170470 -7.305250 39.081100 -0.000007 -0.000012 0.001608 -0.002762 30.189200 40.985400 -0.000006 -0.000013 -0.324328 11.883700 -74.125400 11.754300 -0.000000 0.000003 -0.009761 -0.101857 -20.726500 -2.192510 6.469440 -0.000001 -173.480000 -1.297210 128.978000 -39.081100 -0.002282 -0.040193 -0.213092 0.023533 83.772500 -40.985400 0.000008 0.000006 -0.547584 -19.393000 -61.569300 -11.754300 -0.000006 -0.000006 -0.001055 0.183857 -9.115140
0.000000 0.000000 0.000000 0.000000 0.000000 -0.000000 -0.455412 92.363900 -10.533100 -83.606700 2.905940 163.476000 15.735700 0.000005 -0.000001 35.846400 85.946800 -31.693500 8.984550 -0.406207 -0.000000 -2.761640 -6.949590 8.146840 16.377300 -0.000001 -0.000001 -3.665930 8.190240 -3.869750 6.456720 -0.000001 -0.000000 0.772317 12.802500 -6.208800 12.994200 -0.242716 4.980390 -92.314000 7.691970 -73.200800 5.348090 -0.000007 -0.000001 -71.022800 -12.758900 -3.627980 24.328600 0.000019 0.000005 52.562800 5.293920 -85.959600 22.291600 -0.000001 0.000005 46.568000 4.109700 22.647100 12.994500 -0.242716 -4.980390 90.178500 -0.607544 -73.626200 -5.348130 -0.000001 -0.000004 -54.863900 -14.664600 30.132300 -24.328900 0.000322 -0.000009 7.752980 12.665900 -31.840500 -22.291500 -0.000108 -0.000004 59.357900 5.402980 -3.034660 -2.192480 -6.469440 -0.000000 -176.734000 -3.240410 -1.717420 39.081100 -0.000007 -0.000012 0.002081 -0.006246 18.426300 40.985400 -0.000006 -0.000013 -0.006111 10.859400 -53.658800 11.754300 -0.000000 0.000003 -0.086578 -0.409969 -33.627200 -2.192510 6.469440 -0.000001 -169.940000 -4.881140 127.043000 -39.081100 -0.002282 -0.040193 -0.160948 0.075924 65.173100 -40.985400 0.000008 0.000006 -1.430390 -22.309700 -64.977900 -11.754300 -0.000006 -0.000006 -0.001055 0.183859 -9.115040
0.000000 0.000000 0.000000 0.000000 0.000000 -0.000000 -0.547873 94.425600 -20.899500 -84.494700 3.789610 163.198000 15.735700 0.000005 -0.000001 25.853300 85.829000 -21.819800 8.984550 -0.406207 -0.000000 -3.854570 -7.910670 7.814010 16.377300 -0.000001 -0.000001 -3.003940 8.857540 -4.353090 6.456720 -0.000001 -0.000000 1.588600 14.159300 -5.978270 12.994200 -0.242716 4.980390 -92.145700 7.216110 -73.391500 5.348090 -0.000007 -0.000001 -70.366800 -9.680940 -4.293550 24.328600 0.000019 0.000005 52.165700 3.651460 -87.168300 22.291600 -0.000001 0.000005 44.988600 4.125070 22.422300 12.994500 -0.242716 -4.980390 90.505400 -1.689690 -73.344200 -5.348130 -0.000001 -0.000004 -52.773900 -13.636400 32.522200 -24.328900 0.000322 -0.000009 6.389470 10.864200 -30.719900 -22.291500 -0.000108 -0.000004 57.692400 5.404590 -3.087250 -2.192480 -6.469440 -0.000000 -178.718000 -2.865500 3.095430 39.081100 -0.000007 -0.000012 -0.007302 0.029562 13.874000 40.985400 -0.000006 -0.000013 -1.647060 9.705050 -33.525600 11.754300 -0.000000 0.000003 -0.013934 -0.131005 -21.920300 -2.192510 6.469440 -0.000001 -172.728000 -7.450050 131.073000 -39.081100 -0.002282 -0.040193 -0.045533 0.049158 44.789100 -40.985400 0.000008 0.000006 -3.832150 -16.107500 -67.093100 -11.754300 -0.000006 -0.000006 -0.000816 0.180431 -9.254340
